# xmcd
#
# Track frame offsets:
#	150
#	42352
#	78020
#	110807
#	142860
#
# Disc length: 2460 seconds
#
# Revision: 0
# Processed by: cddbd v1.5.2PL0 Copyright (c) Steve Scherf et al.
# Submitted via: dBpowerAMP V4.0
#
DISCID=37099a05
DTITLE=Randy Sabien - Paintin' The Canvas Disc 1
DYEAR=1900
DGENRE=
TTITLE0=J D Meets The Rhythm Section
TTITLE1=SummerTime
TTITLE2=Crisis
TTITLE3=Capricious
TTITLE4=Greensleeves
EXTD=
EXTT0=
EXTT1=
EXTT2=
EXTT3=
EXTT4=
PLAYORDER=
